<?xml version="1.0" encoding="UTF-8" standalone="no"?>
<svg width="42px" height="43px" viewBox="0 0 42 43" version="1.1" xmlns="http://www.w3.org/2000/svg" xmlns:xlink="http://www.w3.org/1999/xlink">
    <!-- Generator: Sketch 40.3 (33839) - http://www.bohemiancoding.com/sketch -->
    <title>Election</title>
    <desc>Created with Sketch.</desc>
    <defs>
        <polygon id="path-1" points="0 43 42 43 42 0 0 0"></polygon>
    </defs>
    <g id="Symbols" stroke="none" stroke-width="1" fill="none" fill-rule="evenodd">
        <g id="Election">
            <g id="Election-Icon">
                <path d="M1.001,42.249 L41.001,42.249 L41.001,22.249 L1.001,22.249 L1.001,42.249 Z M8,35.25 L34,35.25 L34,29.25 L8,29.25 L8,35.25 Z" id="Fill-1" fill-opacity="0.5" fill="#0073A3"></path>
                <polygon id="Fill-2" fill-opacity="0.6" fill="#FC5158" points="11.001 17.75 31.001 17.75 31.001 0.75 11.001 0.75"></polygon>
                <g id="Group-9">
                    <path d="M26.0004,9.2498 C26.0004,12.0108 23.7614,14.2498 21.0004,14.2498 C18.2394,14.2498 16.0004,12.0108 16.0004,9.2498 C16.0004,6.4888 18.2394,4.2498 21.0004,4.2498 C23.7614,4.2498 26.0004,6.4888 26.0004,9.2498 L26.0004,9.2498 Z" id="Fill-3" fill="#FFFFFF"></path>
                    <path d="M20.9619,12.4424 C20.7339,12.4424 20.5189,12.3384 20.3759,12.1614 L17.9139,9.0844 C17.6549,8.7604 17.7079,8.2884 18.0309,8.0294 C18.3559,7.7734 18.8259,7.8234 19.0859,8.1464 L20.9229,10.4434 L25.8869,3.3774 C26.1229,3.0384 26.5909,2.9534 26.9309,3.1944 C27.2709,3.4314 27.3519,3.8994 27.1129,4.2384 L21.5749,12.1234 C21.4409,12.3164 21.2219,12.4344 20.9849,12.4424 L20.9619,12.4424 Z" id="Fill-5" fill="#373737"></path>
                    <mask id="mask-2" fill="white">
                        <use xlink:href="#path-1"></use>
                    </mask>
                    <g id="Clip-8"></g>
                    <path d="M1.5,41.5 L40.5,41.5 L40.5,23 L1.5,23 L1.5,41.5 Z M6.671,14 L10.25,14 L10.25,17 L8,17 C7.586,17 7.25,17.336 7.25,17.75 C7.25,18.164 7.586,18.5 8,18.5 L34,18.5 C34.414,18.5 34.75,18.164 34.75,17.75 C34.75,17.336 34.414,17 34,17 L31.75,17 L31.75,14 L35.329,14 L39.913,21.5 L2.087,21.5 L6.671,14 Z M11.75,1.5 L30.25,1.5 L30.25,12.5 L30.25,14 L30.25,17 L11.75,17 L11.75,14 L11.75,12.5 L11.75,1.5 Z M41.989,22.195 C41.985,22.147 41.973,22.101 41.96,22.053 C41.946,22.002 41.931,21.954 41.908,21.908 C41.899,21.893 41.899,21.875 41.89,21.859 L36.39,12.859 C36.254,12.636 36.012,12.5 35.75,12.5 L31.75,12.5 L31.75,0.75 C31.75,0.336 31.414,0 31,0 L11,0 C10.586,0 10.25,0.336 10.25,0.75 L10.25,12.5 L6.25,12.5 C5.988,12.5 5.746,12.636 5.61,12.859 L0.11,21.859 C0.101,21.875 0.101,21.893 0.092,21.908 C0.069,21.954 0.054,22.002 0.04,22.053 C0.027,22.101 0.015,22.147 0.011,22.195 C0.01,22.214 0,22.231 0,22.25 L0,42.25 C0,42.664 0.336,43 0.75,43 L41.25,43 C41.664,43 42,42.664 42,42.25 L42,22.25 C42,22.231 41.99,22.214 41.989,22.195 L41.989,22.195 Z" id="Fill-7" fill="#373737" mask="url(#mask-2)"></path>
                </g>
            </g>
        </g>
    </g>
</svg>