<?xml version="1.0" encoding="UTF-8" standalone="no"?>
<svg width="20px" height="20px" viewBox="0 0 20 20" version="1.1" xmlns="http://www.w3.org/2000/svg" xmlns:xlink="http://www.w3.org/1999/xlink">
    <!-- Generator: Sketch 40.3 (33839) - http://www.bohemiancoding.com/sketch -->
    <title>Facebook</title>
    <desc>Created with Sketch.</desc>
    <defs></defs>
    <g id="Symbols" stroke="none" stroke-width="1" fill="none" fill-rule="evenodd">
        <g id="Facebook" fill="#FFFFFF">
            <path d="M1.125,0 C0.5,0 0,0.5 0,1.125 L0,18.875 C0,19.5 0.5,20 1.125,20 L10.75,20 L10.75,12.25 L8.125,12.25 L8.125,9.25 L10.75,9.25 L10.75,7 C10.75,4.375 12.375,3 14.625,3 C15.75,3 16.625,3.125 17,3.125 L17,5.875 L15.375,5.875 C14.125,5.875 13.875,6.5 13.875,7.375 L13.875,9.25 L16.875,9.25 L16.5,12.25 L13.75,12.25 L13.75,20 L18.875,20 C19.5,20 20,19.5 20,18.875 L20,1.125 C20,0.5 19.5,0 18.875,0 L1.125,0 Z"></path>
        </g>
    </g>
</svg>