<?xml version="1.0" encoding="UTF-8" standalone="no"?>
<svg width="21px" height="17px" viewBox="0 0 21 17" version="1.1" xmlns="http://www.w3.org/2000/svg" xmlns:xlink="http://www.w3.org/1999/xlink">
    <!-- Generator: Sketch 40.3 (33839) - http://www.bohemiancoding.com/sketch -->
    <title>Twitter</title>
    <desc>Created with Sketch.</desc>
    <defs></defs>
    <g id="Symbols" stroke="none" stroke-width="1" fill="none" fill-rule="evenodd">
        <g id="Twitter" fill="#FFFFFF">
            <g id="icon/twitter">
                <path d="M18.1779128,2.65625 C18.9998739,2.125 19.7186207,1.275 20.0263869,0.31875 C19.2053642,0.85 18.2811271,1.16875 17.3568901,1.38125 C16.637205,0.53125 15.5074777,0 14.2754744,0 C11.9137438,0 10.0643315,1.9125 10.0643315,4.25 C10.0643315,4.56875 10.0643315,4.8875 10.1675457,5.20625 C6.67514954,5.1 3.59467218,3.4 1.54070784,0.74375 C1.1297273,1.38125 0.924237039,2.125 0.924237039,2.975 C0.924237039,4.4625 1.64298381,5.7375 2.77271112,6.5875 C2.15717863,6.48125 1.54070784,6.26875 0.924237039,5.95 L0.924237039,6.05625 C0.924237039,8.18125 2.36173059,9.88125 4.31341895,10.30625 C4.00565271,10.30625 3.59467218,10.4125 3.18369165,10.4125 C2.87592541,10.4125 2.67043514,10.4125 2.36173059,10.30625 C2.87592541,12.00625 4.41569493,13.28125 6.26510732,13.28125 C4.82667546,14.45 2.97820138,15.0875 1.02745133,15.0875 C0.718746773,15.0875 0.307766242,15.0875 0,14.98125 C1.95168837,16.25625 4.21114298,17 6.57287356,17 C14.2754744,17 18.5888934,10.4125 18.5888934,4.78125 L18.5888934,4.25 C19.4108544,3.6125 20.0263869,2.86875 20.6428577,2.01875 C19.9241109,2.3375 19.1021499,2.55 18.1779128,2.65625 Z" id="Page-1"></path>
            </g>
        </g>
    </g>
</svg>