<?xml version="1.0" encoding="UTF-8" standalone="no"?>
<svg width="26px" height="26px" viewBox="0 0 26 26" version="1.1" xmlns="http://www.w3.org/2000/svg" xmlns:xlink="http://www.w3.org/1999/xlink">
    <!-- Generator: Sketch 40.3 (33839) - http://www.bohemiancoding.com/sketch -->
    <title>Winning Candidate Desktop/Tablet</title>
    <desc>Created with Sketch.</desc>
    <defs></defs>
    <g id="Symbols" stroke="none" stroke-width="1" fill="none" fill-rule="evenodd">
        <g id="Winning-Candidate-Desktop/Tablet">
            <g id="Check">
                <path d="M13,0 C5.832,0 0,5.832 0,13 C0,20.168 5.832,26 13,26 C20.168,26 26,20.168 26,13 C26,5.832 20.168,0 13,0" id="Bkgd" fill="#00CDBE"></path>
                <path d="M11.0033764,17.9990026 L7.22037644,14.2400026 C6.92737644,13.9480026 6.92637644,13.4750026 7.21837644,13.1820026 C7.51137644,12.8890026 7.98537644,12.8880026 8.27837644,13.1800026 L11.0033764,15.8870026 L18.7213764,8.21800257 C19.0143764,7.92600257 19.4883764,7.92800257 19.7803764,8.22000257 C20.0733764,8.51300257 20.0723764,8.98700257 19.7783764,9.27800257 L11.0033764,17.9990026 Z" id="Fill-1" fill="#FFFFFF"></path>
            </g>
        </g>
    </g>
</svg>